<svg width="101" height="24" viewBox="0 0 101 24" fill="none" xmlns="http://www.w3.org/2000/svg">
<g clip-path="url(#clip0_288_39603)">
<path d="M19.7769 14.9781C19.4068 14.249 19.0101 13.5472 18.5886 12.8749C16.5798 15.9875 13.2166 18.7726 8.95532 20.5045L10.3809 24C14.7882 22.209 18.0654 18.8795 19.7769 14.9781Z" fill="#FBBC05"/>
<path d="M11.057 19.2405C11.64 18.917 12.2038 18.5762 12.747 18.2193C8.99812 16.4255 5.52874 12.6792 3.50125 7.70776L0 9.13079C2.09584 14.2712 6.29567 17.8758 11.057 19.2405Z" fill="#34A853"/>
<path d="M16.675 3.49549L15.2495 0C10.2342 2.03837 6.68048 6.06948 5.23584 10.6693C5.58632 11.2458 5.95619 11.7987 6.34051 12.3316C8.20604 8.74032 11.8704 5.44825 16.675 3.49549Z" fill="#4285F4"/>
<path d="M24.1406 14.7827C22.1938 10.0091 18.4338 6.56094 14.0946 4.99951C13.4681 5.36641 12.8653 5.75293 12.288 6.15776C15.6887 8.09223 18.7736 11.6316 20.6391 16.2058L24.1406 14.7827Z" fill="#EA4335"/>
<path d="M12.5832 14.5021C13.786 14.5021 14.7611 13.5287 14.7611 12.3279C14.7611 11.1271 13.786 10.1537 12.5832 10.1537C11.3804 10.1537 10.4053 11.1271 10.4053 12.3279C10.4053 13.5287 11.3804 14.5021 12.5832 14.5021Z" fill="black"/>
<path d="M29.63 18.2566C29.6736 17.7775 29.8227 17.2985 30.0772 16.8194C30.3317 16.3403 30.6334 15.9484 30.9824 15.6435C32.5384 16.5871 34.0144 17.0589 35.4105 17.0589C36.0212 17.0589 36.4684 16.921 36.752 16.6452C37.0355 16.3694 37.1773 16.0282 37.1773 15.6217C37.1773 14.9394 36.7193 14.4023 35.8031 14.0103L33.2292 12.9215C32.2258 12.4715 31.455 11.9308 30.917 11.2993C30.3789 10.6678 30.1099 9.86569 30.1099 8.89304C30.1099 8.22525 30.2444 7.61553 30.5134 7.06388C30.7825 6.51223 31.1606 6.03317 31.6477 5.62669C32.1349 5.22021 32.7129 4.90446 33.3819 4.67944C34.0508 4.45443 34.7924 4.34192 35.6068 4.34192C37.2355 4.34192 38.8788 4.75566 40.5365 5.58313C40.4638 6.70095 40.0712 7.57198 39.3586 8.19622C37.8754 7.48488 36.5666 7.12921 35.4323 7.12921C34.8506 7.12921 34.4143 7.25986 34.1235 7.52117C33.8327 7.78248 33.6872 8.08008 33.6872 8.41398C33.6872 8.98015 34.1162 9.43744 34.9742 9.78585L37.5918 10.8964C38.697 11.361 39.5222 11.9562 40.0676 12.682C40.6129 13.4079 40.8856 14.2499 40.8856 15.208C40.8856 15.8903 40.7619 16.5145 40.5147 17.0807C40.2675 17.6469 39.9003 18.1368 39.4132 18.5506C38.926 18.9643 38.3189 19.2873 37.5918 19.5196C36.8647 19.7519 36.014 19.868 35.0397 19.868C33.1492 19.868 31.346 19.3309 29.63 18.2566ZM43.1541 19.5414V4.66855C43.6049 4.58145 44.1866 4.5379 44.8992 4.5379C45.6117 4.5379 46.2007 4.58145 46.666 4.66855V19.5414C46.2007 19.6285 45.6117 19.672 44.8992 19.672C44.1866 19.672 43.6049 19.6285 43.1541 19.5414ZM49.5672 19.4978L50.7233 4.69033C51.3631 4.57419 52.1193 4.51612 52.9918 4.51612C53.8643 4.51612 54.6278 4.57419 55.2822 4.69033L56.5692 10.0254C57.0781 12.4352 57.3472 13.749 57.3762 13.9668H57.5289C57.5871 13.6039 57.8561 12.2901 58.336 10.0254L59.6448 4.69033C60.2847 4.57419 61.0408 4.51612 61.9134 4.51612C62.7859 4.51612 63.5494 4.57419 64.2037 4.69033L65.3598 19.4978C64.909 19.6139 64.3528 19.672 63.6911 19.672C63.0295 19.672 62.4878 19.6357 62.0661 19.5631L61.7171 13.5095C61.6153 11.0996 61.5571 9.42292 61.5425 8.4793H61.4117L59.2522 17.342C58.7287 17.4291 58.1288 17.4727 57.4526 17.4727C56.7764 17.4727 56.1765 17.4291 55.653 17.342L53.5153 8.4793H53.3626C53.3626 9.77133 53.3045 11.4481 53.1881 13.5095L52.8609 19.5631C52.4392 19.6357 51.8975 19.672 51.2359 19.672C50.5742 19.672 50.018 19.6139 49.5672 19.4978ZM68.3482 4.625C69.5261 4.59597 70.5332 4.57419 71.3693 4.55968C72.2055 4.54516 72.8781 4.5379 73.3871 4.5379C74.9721 4.5379 76.2191 4.86817 77.128 5.5287C78.0369 6.18923 78.4913 7.18002 78.4913 8.50108C78.4913 9.13983 78.3095 9.73504 77.946 10.2867C77.5824 10.8383 77.1171 11.2376 76.55 11.4844C76.9135 11.6005 77.2589 11.7856 77.5861 12.0396C77.9133 12.2937 78.1932 12.5913 78.4259 12.9324C78.6586 13.2736 78.844 13.6438 78.9821 14.043C79.1203 14.4422 79.1893 14.8523 79.1893 15.2733C79.1893 16.7686 78.7131 17.8755 77.7606 18.5941C76.8081 19.3127 75.4593 19.672 73.7143 19.672C73.1762 19.672 72.4636 19.6648 71.5766 19.6502C70.6895 19.6357 69.6134 19.614 68.3482 19.5849L68.1955 19.4325V4.77743L68.3482 4.625ZM73.4525 12.9869H71.642V17.2331C72.0201 17.2186 72.4455 17.2186 72.9181 17.2331C73.3907 17.2477 73.8306 17.2114 74.2378 17.1243C74.6449 17.0372 74.9867 16.8267 75.263 16.4928C75.5393 16.1589 75.6774 15.6943 75.6774 15.0991C75.6774 14.533 75.4993 14.0394 75.143 13.6184C74.7867 13.1974 74.2232 12.9869 73.4525 12.9869ZM71.642 6.99856V10.5044H73.1907C73.8888 10.5044 74.3795 10.3339 74.6631 9.99272C74.9467 9.65156 75.0885 9.2342 75.0885 8.74061C75.0885 8.24703 74.9431 7.83692 74.6522 7.51028C74.3614 7.18365 73.8742 7.02033 73.1907 7.02033H72.3073C72.3073 7.02033 72.0855 7.01307 71.642 6.99856ZM81.6542 19.5414V4.66855C82.105 4.58145 82.6867 4.5379 83.3993 4.5379C84.1118 4.5379 84.7008 4.58145 85.1661 4.66855V19.5414C84.7008 19.6285 84.1118 19.672 83.3993 19.672C82.6867 19.672 82.105 19.6285 81.6542 19.5414ZM91.7537 15.4911C92.1463 16.6234 92.9388 17.1896 94.1313 17.1896C94.7275 17.1896 95.211 17.0408 95.5819 16.7432C95.9527 16.4456 96.2435 16.0681 96.4544 15.6108C96.6653 15.1536 96.807 14.6418 96.8797 14.0757C96.9525 13.5095 96.9888 12.9506 96.9888 12.3989C96.9888 11.8908 96.9706 11.3247 96.9343 10.7004C96.8979 10.0762 96.7925 9.49188 96.618 8.94748C96.4435 8.40309 96.1672 7.9458 95.7891 7.57561C95.411 7.20543 94.8584 7.02033 94.1313 7.02033C93.4333 7.02033 92.8989 7.19817 92.528 7.55384C92.1572 7.90951 91.8809 8.34865 91.6991 8.87127C91.5174 9.39388 91.4047 9.94916 91.361 10.5371C91.3174 11.1251 91.2956 11.644 91.2956 12.0941C91.2956 12.7619 91.3283 13.3571 91.3938 13.8797C91.4592 14.4023 91.5792 14.9394 91.7537 15.4911ZM89.9868 18.4961C88.4308 17.2041 87.6528 15.0773 87.6528 12.1158C87.6528 10.8383 87.8019 9.71689 88.1 8.7515C88.3981 7.78611 88.8271 6.97678 89.387 6.32351C89.9468 5.67024 90.6267 5.17665 91.4265 4.84276C92.2263 4.50887 93.1279 4.34192 94.1313 4.34192C95.1347 4.34192 96.0399 4.50887 96.847 4.84276C97.6541 5.17665 98.3376 5.67387 98.8975 6.3344C99.4573 6.99493 99.8863 7.80789 100.184 8.77328C100.483 9.73867 100.632 10.8529 100.632 12.1158C100.632 13.3788 100.483 14.493 100.184 15.4584C99.8863 16.4238 99.4573 17.2331 98.8975 17.8864C98.3376 18.5397 97.6541 19.0333 96.847 19.3672C96.0399 19.7011 95.1347 19.868 94.1313 19.868C92.4735 19.868 91.092 19.4107 89.9868 18.4961Z" fill="black"/>
</g>
<defs>
<clipPath id="clip0_288_39603">
<rect width="100.632" height="24" fill="white"/>
</clipPath>
</defs>
</svg>