<?xml version="1.0" encoding="UTF-8"?>
<svg xmlns="http://www.w3.org/2000/svg" id="Layer_1" data-name="Layer 1" viewBox="0 0 24 24" width="512" height="512"><path d="m15,7V0H5c-1.657,0-3,1.343-3,3v21h20V7h-7Zm-6.014,10.015c0,1.094-.902,1.985-2.012,1.985-1.086,0-1.967-.881-1.967-1.967l-.008-2.066c0-1.086.881-1.967,1.967-1.967,1.109,0,2.012.891,2.012,1.985v.015h-1.25v-.015c0-.394-.342-.726-.75-.733-.402.007-.725.333-.724.736,0,.095.008,1.886.008,2.024-.001.403.322.729.724.736.408-.007.75-.338.75-.733v-.015s1.25,0,1.25,0v.015Zm2.567-2.087c.016,0,.614.263,1.272.506,1.223.451,1.529,1.336,1.408,2.014-.16.899-1.019,1.552-2.04,1.552-.826,0-1.603-.333-2.13-.914l-.42-.462.926-.84.42.463c.286.315.736.504,1.204.504.448,0,.764-.265.81-.521.062-.345-.451-.562-.61-.621-.752-.277-1.43-.58-1.43-.58-.6-.382-.864-.969-.777-1.579.094-.649.568-1.178,1.239-1.38,1.317-.397,2.407.499,2.452.537l.479.402-.805.957-.476-.399c-.025-.021-.633-.495-1.29-.299-.293.088-.351.282-.362.361-.008.059-.013.206.13.302Zm6.208,4.072h-1.25l-1.511-6h1.252l.826,3.282.684-3.282h1.252l-1.252,6Zm3.653-14h-4.414V.586l4.414,4.414Z"/></svg>
