<?xml version="1.0" encoding="utf-8"?>
<!-- Generator: Adobe Illustrator 24.3.0, SVG Export Plug-In . SVG Version: 6.00 Build 0)  -->
<svg version="1.1" xmlns="http://www.w3.org/2000/svg" xmlns:xlink="http://www.w3.org/1999/xlink" x="0px" y="0px"
	 viewBox="0 0 792 612" style="enable-background:new 0 0 792 612;" xml:space="preserve">
<style type="text/css">
	.st0{fill:#006F38;}
	.st1{fill:#C90C0F;}
	.st2{fill:#FFFFFF;}
</style>
<g id="Layer_2">
</g>
<g id="Layer_1">
	<g>
		<path class="st0" d="M605.4,306c0,115.6-93.7,209.4-209.4,209.4c-115.6,0-209.4-93.7-209.4-209.4c0-115.6,93.7-209.4,209.4-209.4
			C511.6,96.6,605.4,190.4,605.4,306z M396,165.4c-77.6,0-140.5,62.9-140.5,140.5c0,77.6,62.9,140.5,140.5,140.5
			c77.6,0,140.6-62.9,140.6-140.5C536.5,228.4,473.6,165.4,396,165.4z"/>
		<path class="st1" d="M442.6,394.4c-51.8,0-93.7-39.6-93.7-88.4c0-48.8,42-88.4,93.7-88.4c15.4,0,29.9,3.5,42.7,9.7
			c-20.8-18.8-49-30.4-80.1-30.4c-63.9,0-115.7,48.8-115.7,109.1c0,60.2,51.8,109.1,115.7,109.1c31.1,0,59.3-11.6,80.1-30.5
			C472.6,390.8,458,394.4,442.6,394.4z"/>
		<g>
			<path class="st2" d="M311.2,449.9c0,5.6-4.5,10.1-10.1,10.1c-5.6,0-10.1-4.5-10.1-10.1c0-5.6,4.5-10.1,10.1-10.1
				C306.7,439.7,311.2,444.3,311.2,449.9z"/>
			<path class="st2" d="M501,449.9c0,5.6-4.5,10.1-10.1,10.1c-5.6,0-10.1-4.5-10.1-10.1c0-5.6,4.5-10.1,10.1-10.1
				C496.5,439.7,501,444.3,501,449.9z"/>
		</g>
		<path class="st2" d="M352.7,464.4c0.6-1.7,0.8-3.4,0.7-5.2c-0.3-3.7-2.4-6.3-6.1-7.9c-1.9-0.7-3.7-1.6-5.6-2.5
			c-0.8-0.4-1.6-0.8-2.5-1.2c-0.8-0.4-1.7,0-2.1,0.7l-15.3,30.5c-0.2,0.4-0.2,0.8-0.1,1.2c0.1,0.4,0.4,0.7,0.8,0.9l2.4,1.2
			c2.6,1.3,5.3,2.6,8.1,3.6c3.9,1.6,7.1,1.9,9.6,0.9c2.9-1.1,5-3.6,6.3-7.2c1.4-4.2,0.6-7.2-0.8-9.3
			C350.2,469.1,351.8,467.1,352.7,464.4z M342.2,477.2c-0.3,0.8-0.7,1.5-1.2,1.9c-0.8,0.8-1.7,1.1-3,0.8c-0.2,0-0.8-0.2-2.2-0.8
			c-1.8-0.7-3.5-1.5-5.2-2.3l3.7-7.8c1.6,0.8,3,1.4,4.4,1.9c1.7,0.7,2.5,1.3,2.9,1.7C342.4,473.5,343.1,474.7,342.2,477.2z
			 M346.4,462.8c-0.8,2.1-1.8,2.3-2.6,2.3c-0.3,0-1-0.1-2.7-0.8c-1.3-0.5-2.6-1.1-3.7-1.6l3.1-6.5c1,0.5,2.1,1,3.2,1.4
			c1.8,0.7,2.5,1.3,2.7,1.5C347.1,459.8,347.1,461.1,346.4,462.8z M375.5,460.2c-1.3-0.6-2.8-1.1-4.5-1.5c-2.9-0.6-5.4-1.1-7.9-1.9
			c-0.4-0.1-0.9-0.1-1.2,0.1c-0.4,0.2-0.7,0.6-0.8,1l-9.1,32.9c-0.2,0.8,0.2,1.7,1.1,1.9c3.6,1.1,7.2,1.8,10.7,2.6
			c2.3,0.5,3.9,0.6,5.4,0.4c3.1-0.4,5.8-1.8,7.9-4.4c2.4-2.9,3.9-6.9,4.5-12.3c0.4-3.1,0.3-5.9-0.1-8.6
			C380.9,465.3,378.8,461.8,375.5,460.2z M374.9,478.1c-0.7,4.6-2,7.8-3.9,9.4c-1.3,1.1-3.4,1.3-6.1,0.7c0,0-2.7-0.6-4.6-1l5.6-22.3
			l3.6,0.8c2.1,0.4,3.1,1,3.5,1.3C375,468.6,375.7,472.4,374.9,478.1z M407.8,486.8c-1.1-1.9-2.3-3.5-3.5-4.7
			c3.8-1.8,5.6-5.2,5.2-10.3c-0.1-2-0.7-3.9-1.6-5.7c-1.1-2.1-2.6-3.5-4.4-4.1c-1.2-0.5-2.8-0.7-4.9-0.6c-4.1,0-7.4-0.1-10.5-0.3
			c-0.9-0.1-1.6,0.6-1.7,1.5l-2.4,34.1c0,0.4,0.1,0.8,0.4,1.2c0.3,0.3,0.7,0.5,1.1,0.5l4,0.2c0.4,0,0.8-0.1,1.2-0.4
			c0.3-0.3,0.5-0.7,0.5-1.1l0.6-13.6l2.6,0.1c1.2,0,1.5,0.1,1.6,0.1c0.3,0.1,0.7,0.3,1.2,0.7c0.3,0.3,1,0.9,2.1,2.8
			c0.5,0.8,1.1,1.8,2.2,3.6c0,0,4.3,7,4.3,7c0.3,0.5,0.9,0.8,1.5,0.8l5-0.4c0.6,0,1.1-0.4,1.3-0.9c0.2-0.5,0.2-1.1-0.1-1.6
			C411.6,492.9,409.6,490,407.8,486.8z M402.4,474.6c-0.5,1.2-2,1.9-4.3,1.9c0.1,0-3.7-0.1-5.9-0.2l0.4-8.1c0.4,0,0.9,0,1.3,0
			c1.6,0.1,3.3,0.1,5,0.1c2.6-0.1,3.8,1,3.9,3.9C402.9,473.1,402.7,473.9,402.4,474.6z M441.3,478.5l-3.9-0.1
			c-0.5,0-0.9,0.2-1.2,0.5c-0.3,0.3-0.5,0.8-0.4,1.2c0.7,7.6-3.5,8.4-4.9,8.7c-1.6,0.3-2.9,0.2-4.2-0.4c-2.8-1.3-4.5-4.8-5.4-10.4
			c-0.3-2-0.4-4.1-0.2-6.2c0.4-4,2-6.1,5-6.8c1.5-0.3,3.9-0.2,6.5,4.5c0.2,0.4,0.6,0.7,1,0.8c0.4,0.1,0.9,0,1.2-0.2l2.9-1.9
			c0.7-0.5,0.9-1.4,0.5-2.1c-1.7-3.1-3.7-5.4-6-6.7c-2.5-1.4-5.1-1.8-7.6-1.3c-2.3,0.5-4.3,1.7-6.2,3.6c-3.6,3.9-5,9.7-4.1,17.4
			c0.4,3.5,1.4,6.6,2.8,9.4c3.2,6.2,8.8,8.9,15.4,7.3c3.7-0.8,6.4-2.7,8.2-5.6c1.6-2.7,2.3-6.1,2-10.1
			C442.8,479.2,442.1,478.5,441.3,478.5z M469,470.2c-1.9-3.8-5.1-6-9.1-6.3c-1.3-0.1-3.3,0.1-6.6,0.4c-2.7,0.3-3.6,0.2-3.9,0.2
			c-1.1-0.2-1.8-0.8-2.3-1.9c-0.5-1.2-0.4-2.2,0.3-3.1c0.5-0.7,1.3-1.3,2.4-1.8c2-0.8,4.1-0.9,6.3,2.9c0.2,0.4,0.6,0.6,1,0.8
			c0.4,0.1,0.9,0,1.2-0.2l2.8-1.7c0.7-0.4,1-1.3,0.6-2.1c-1-1.9-2.3-3.5-3.9-4.8c-3.1-2.5-6.7-3-10.8-1.4c-1.7,0.7-3.2,1.8-4.3,3.2
			c-1.1,1.3-1.8,2.9-2,4.8c-0.3,1.9-0.1,3.9,0.6,5.9c1.2,3.6,3.6,5.9,7.1,6.8c1.7,0.5,3.8,0.3,5.9,0.1c3.3-0.4,4.9-0.4,5.3-0.4
			c1.8,0,2.9,0.6,3.6,2c0.3,0.7,0.4,1.4,0.4,2.1c-0.2,1.7-1.4,3-3.7,3.9c-1.3,0.6-2.6,0.8-3.8,0.7c-2.1-0.1-3.7-1.5-4.9-4.1
			c-0.4-0.8-1.3-1.1-2.1-0.8l-3.2,1.5c-0.7,0.3-1.1,1.2-0.8,2c0.9,2.4,2.2,4.4,3.9,5.9c2.5,2.3,7,4.4,13.9,1.4
			c2.3-0.9,4.1-2.3,5.4-4.1c1.2-1.7,2-3.6,2.2-5.6C470.5,474.3,470.1,472.2,469,470.2z"/>
		<g>
			<path class="st2" d="M518,215.1l1.8,2.4c0.5,0.7,1.5,0.8,2.2,0.3l16.8-12.2c-3.5,6.6-7.6,13.4-12.3,20.2c-0.4,0.5-0.4,1.2,0,1.7
				l1.6,2.7c0.5,0.7,1.4,1,2.1,0.5l30-17.4c0.4-0.2,0.6-0.6,0.7-1c0.1-0.4,0-0.8-0.2-1.2l-1.9-3.1c-0.2-0.4-0.6-0.6-1-0.7
				c-0.4-0.1-0.8,0-1.2,0.2l-17.5,10.6c4.5-7.2,8.4-14.3,11.5-21.1c0.2-0.5,0.2-1.1-0.2-1.6l-2.3-3.1c-0.3-0.3-0.6-0.6-1-0.6
				c-0.4-0.1-0.8,0.1-1.2,0.3l-27.7,20.8C517.6,213.4,517.4,214.4,518,215.1z"/>
			<path class="st2" d="M237.1,220c3.3,1.8,6.6,2.1,9.9,0.6c1.4-0.6,2.9-1.7,4.7-3.2c2.2-1.9,3.2-2.7,3.7-3c1.3-0.8,2.7-0.7,4,0.3
				c0.7,0.5,1.2,1,1.5,1.7c0.7,1.4,0.6,2.9-0.4,4.5c-0.5,0.9-1.2,1.5-2.1,2c-1.6,0.8-3.8,0.6-6.3-0.6c-0.4-0.2-0.8-0.2-1.2-0.1
				c-0.4,0.1-0.7,0.4-0.9,0.8l-1.3,2.8c-0.3,0.8,0,1.7,0.7,2.1c2.2,1.2,4.4,1.9,6.7,2.1c4.7,0.4,8.3-1.4,10.7-5.4
				c1.1-1.8,1.4-3.8,1.5-5.3c0-1.8-0.4-3.6-1.4-5.3c-1-1.8-2.4-3.4-4.2-4.6c-3.6-2.6-7.3-3.1-11-1.6c-1.3,0.5-2.8,1.6-5.4,3.9
				c-2,1.8-2.7,2.3-3,2.4c-1.1,0.6-2.1,0.6-3.1,0c-1.2-0.7-1.7-1.5-1.7-2.6c0-1,0.4-2.1,1.1-3.3c1.1-1.9,2.9-3.8,7-1.4
				c0.8,0.4,1.7,0.2,2.1-0.6l1.8-2.9c0.4-0.7,0.2-1.7-0.5-2.1c-1.9-1.3-3.9-2.1-5.9-2.4c-4.4-0.6-8.2,1.4-10.7,5.7
				c-1.1,1.8-1.8,3.8-1.9,5.8c-0.1,1.9,0.3,3.8,1.3,5.5C233.7,217.5,235.2,219,237.1,220z"/>
			<path class="st2" d="M570.5,262.9c-3.7,0.9-6.2,3-7.5,6.3c-0.5,1.2-0.7,2.6-1,4.4l-0.2,1c-0.5,3.2-0.8,4.4-1,4.8
				c-0.5,1.6-1.5,2.4-3.1,2.6c-0.8,0.1-1.6,0-2.3-0.2c-1.5-0.5-2.3-1.6-2.6-3.5c-0.2-1,0-2,0.4-3c0.6-1.7,2.2-3,4.9-3.9
				c0.4-0.1,0.8-0.4,0.9-0.8c0.2-0.4,0.2-0.8,0-1.2l-1.1-2.9c-0.3-0.8-1.1-1.2-1.9-1c-2.4,0.6-4.5,1.7-6.3,3
				c-3.4,2.6-4.7,6.1-4.1,11.1c0.3,2,1.1,3.7,2.4,5.1c1.2,1.3,2.8,2.3,4.7,2.9c2,0.6,4.1,0.8,6.2,0.6c4.4-0.6,7.5-2.7,9-6.4
				c0.5-1.3,1-3.4,1.4-6.5c0.3-2,0.6-3.3,0.7-4c0.3-1.1,1-1.7,2.2-2c1.3-0.3,2.3,0,3.2,0.8c0.7,0.6,1,1.5,1.3,3.1
				c0.5,3.2-0.8,5.1-4.3,5.9c-0.4,0.1-0.8,0.4-1,0.7c-0.2,0.4-0.3,0.8-0.2,1.2l0.8,3.3c0.2,0.8,1,1.3,1.8,1.2
				c2.3-0.4,4.2-1.1,5.9-2.3c2.4-1.7,5-5.1,4.1-11.4c-0.4-2.4-1.2-4.2-2.5-5.7c-1.3-1.5-2.9-2.5-4.8-3.1
				C574.7,262.4,572.6,262.4,570.5,262.9z"/>
			<path class="st2" d="M558,221.1l3.3,6.9l-26.2,12.3c-0.4,0.2-0.7,0.5-0.8,0.9c-0.1,0.4-0.1,0.8,0.1,1.2l1.3,2.8
				c0.4,0.8,1.3,1.1,2.1,0.8l26.5-11.8c0.7,1.6,1.4,3.3,2,5.1l0.7,2c0.1,0.4,0.4,0.7,0.8,0.9c0.4,0.2,0.8,0.2,1.2,0l3.8-1.5
				c0.8-0.3,1.2-1.2,0.9-2c-1.6-5-4-9.8-6.3-14.4c-1-2.1-2.1-4.2-3.1-6.4c-0.2-0.4-0.5-0.7-0.9-0.8c-0.4-0.1-0.9-0.1-1.2,0.1
				l-3.6,1.9C558,219.4,557.7,220.3,558,221.1z"/>
			<path class="st2" d="M230.9,358.1c3.3-1,6.4-2.5,9-4.4c2.6-1.9,4.5-4.2,5.6-6.7c1-2.4,1.2-4.9,0.6-7.4c-1.1-4-3.5-7-7.7-9.6
				c-0.3-0.2-0.7-0.3-1.1-0.2l-12.7,1.9c-0.4,0.1-0.8,0.3-1.1,0.6c-0.2,0.3-0.3,0.8-0.3,1.2c0.2,1.2,0.4,2.5,0.6,3.8
				c0.3,2.4,0.7,4.8,1.4,7.2c0.2,0.8,1,1.3,1.9,1.1l4-0.9c0.4-0.1,0.8-0.4,1-0.7c0.2-0.4,0.3-0.8,0.1-1.3c-0.5-1.5-0.7-3.2-1-4.9
				c0-0.2-0.1-0.5-0.1-0.7l4.2-0.7c0.8,0.5,1.5,1.2,2.1,2c0.8,1.2,1.3,2.1,1.5,2.9c0.3,1.2,0.2,2.4-0.3,3.7
				c-1.1,2.8-4.5,5.1-9.8,6.6c-3.9,1.1-7.1,1.1-9.7,0.1c-2.2-0.8-3.5-2.5-4.2-5.2c-0.3-1.2-0.3-2.1,0-3c0.6-1.8,2.2-3.2,4.9-4.4
				c0.4-0.2,0.7-0.5,0.9-0.9c0.1-0.4,0.1-0.9-0.1-1.3l-1.6-3c-0.4-0.7-1.2-1-1.9-0.7c-2.4,0.9-4.4,2-5.8,3.3
				c-3.4,3.1-4.5,7.2-3.3,11.7c0.8,3.1,2.3,5.6,4.4,7.6c2.2,2,5.1,3.2,8.7,3.4C224.2,359.5,227.5,359.1,230.9,358.1z"/>
			<path class="st2" d="M242.8,323.5c-0.2-2.8-0.3-5.6-0.5-8.3l-0.3-6.2c0-0.8-0.7-1.5-1.6-1.5l-4.1,0c-0.4,0-0.8,0.2-1.1,0.5
				c-0.3,0.3-0.4,0.7-0.4,1.2l0.5,10.2l-28.9,2.5c-0.9,0.1-1.5,0.8-1.4,1.7c0,0.4,0,0.8,0.1,1.3c0,0.8,0.1,1.7,0.2,2.6
				c0.1,0.8,0.9,1.4,1.7,1.3l34.5-3.6C242.2,325,242.9,324.3,242.8,323.5z"/>
			<path class="st2" d="M279.4,407.5c-2.2-2.3-4.5-3.6-6.8-3.9c-2.8-0.2-5.8,0.8-8.7,3.1c-3.2,2.4-4.7,5.2-4.6,8.3
				c-2.4-0.2-4.8,0.6-7.1,2.4c-1.5,1.1-2.6,2.6-3.4,4.3c-1.2,2.5-1.8,6.5,2.3,10.8c0,0,7.2,7.9,7.2,7.9c0.3,0.3,0.7,0.5,1.1,0.5
				c0.4,0,0.8-0.1,1.2-0.4l24.9-24.1c0.6-0.6,0.6-1.6,0.1-2.2C285.4,414,279.5,407.5,279.4,407.5z M259.9,431.4l-2.7-2.9
				c-1.6-1.7-2-2.6-2.1-3c-0.2-0.4-0.6-1.4,1.6-3.2c1.8-1.4,2.9-1.2,3.8-0.8c0.2,0.1,0.9,0.5,2,1.8c0,0,1.6,1.8,2.8,3.1L259.9,431.4
				z M270.6,421.5l-2.9-3.2c-1.2-1.3-1.6-2.1-1.7-2.6c-0.5-1.5,1-3,2-3.8c0.7-0.6,1.4-1,2.1-1.2c1.1-0.3,2-0.2,2.9,0.3
				c0.1,0.1,0.4,0.3,1.2,1.2l2.9,3.2L270.6,421.5z"/>
			<path class="st2" d="M217.2,242.6l32.5,12.1c0.4,0.2,0.9,0.1,1.2-0.1c0.4-0.2,0.7-0.5,0.8-0.9c1.5-4.8,3.8-9.4,5.9-13.8l0.9-1.8
				c0.4-0.8,0.1-1.7-0.7-2.1l-3.6-1.8c-0.4-0.2-0.8-0.2-1.2-0.1c-0.4,0.1-0.7,0.5-0.9,0.9c-0.7,1.5-1.5,3.1-2.2,4.6
				c-1.2,2.3-2.4,4.7-3.3,7.3l-8-3.2c0.9-2.5,2-4.8,3.3-7.3c0.7-1.3,1.3-2.7,2-4.1c0.4-0.8,0-1.7-0.7-2.1l-3.7-1.8
				c-0.4-0.2-0.8-0.2-1.2-0.1c-0.4,0.1-0.7,0.4-0.9,0.8c-0.6,1.4-1.3,2.7-2,4.1c-1.2,2.5-2.5,5.1-3.5,7.8l-6.9-2.7
				c1.1-2.9,2.5-5.8,3.8-8.5c0.8-1.6,1.6-3.2,2.4-4.9c0.3-0.8,0-1.7-0.7-2.1l-3.6-1.8c-0.4-0.2-0.8-0.2-1.2-0.1
				c-0.4,0.1-0.7,0.4-0.9,0.8c-3,6.1-6.1,12.3-8.3,19.1C216,241.4,216.4,242.3,217.2,242.6z"/>
			<path class="st2" d="M208.8,273.6l34.1,6.4c0.4,0.1,0.9,0,1.2-0.3c0.4-0.3,0.6-0.7,0.6-1.1c0.2-1.8,0.6-3.6,1.2-5.4
				c0.2-0.8,0.5-1.7,0.7-2.5c0.4-1.5,0.5-3,0.4-4.3c-0.3-2.6-1.6-5-4-7.2c-2.8-2.6-6.6-4.7-11.4-6.2c-3.2-1-6-1.5-8.7-1.6
				c-5.3-0.1-9.1,1.7-11.3,5.5c-0.7,1.2-1.3,2.9-1.9,5.2c-0.2,0.9-0.4,1.7-0.6,2.6c-0.6,2.3-1.2,4.8-1.5,7.2
				C207.4,272.6,207.9,273.4,208.8,273.6z M216.7,263.8c0.6-2.5,1.2-3.5,1.6-3.8c1.9-2.2,5.7-2.4,11.3-0.8c4.4,1.3,7.6,3.1,9.3,5
				c0.9,1.1,1.1,2.7,0.5,4.9c0,0-0.5,2-0.9,3.5l-22.8-4.8L216.7,263.8z"/>
			<path class="st2" d="M257.7,374.6l-1.3-2.7c-0.4-0.8-1.3-1.1-2.1-0.7l-18.8,8.8c4.8-6.1,10.1-11.9,15.8-17.6
				c0.4-0.4,0.6-1.1,0.4-1.7l-1.1-3c-0.3-0.8-1.2-1.2-2-0.9L216,368.3c-0.4,0.1-0.7,0.4-0.9,0.8c-0.2,0.4-0.2,0.8-0.1,1.2l1.2,3.4
				c0.1,0.4,0.4,0.7,0.8,0.9c0.4,0.2,0.8,0.2,1.2,0l19.1-7.1c-5.6,6-10.7,12.3-15.2,18.6c-0.3,0.5-0.4,1.1-0.1,1.6l1.7,3.5
				c0.2,0.4,0.5,0.7,0.9,0.8c0.4,0.1,0.8,0.1,1.2-0.1l31.1-15.3C257.8,376.3,258.1,375.4,257.7,374.6z"/>
			<path class="st2" d="M574.2,370l-32.6-11.8c-0.4-0.1-0.8-0.1-1.2,0.1c-0.4,0.2-0.7,0.5-0.8,0.9c-1.6,4.9-3.8,10-6.7,15.7
				c-0.2,0.4-0.2,0.8-0.1,1.2c0.1,0.4,0.4,0.7,0.8,0.9l3.7,1.8c0.4,0.2,0.8,0.2,1.2,0.1c0.4-0.1,0.7-0.4,0.9-0.8l1.4-2.8
				c1.4-2.9,2.9-6,4-9.2l8.1,3.1c-1.3,3.6-3,7.1-4.6,10.5l-0.4,0.9c-0.2,0.4-0.2,0.8-0.1,1.2c0.1,0.4,0.4,0.7,0.8,0.9l3.7,1.8
				c0.8,0.4,1.7,0,2.1-0.7l0.4-0.8c1.7-3.6,3.5-7.3,4.9-11.1l6.9,2.7c-1.4,3.9-3.2,7.6-4.9,11.3l-1,2.2c-0.4,0.8-0.1,1.7,0.7,2.1
				l3.7,1.8c0.8,0.4,1.7,0.1,2.1-0.7c3.4-6.5,6-12.8,8.1-19.1C575.5,371.1,575,370.3,574.2,370z"/>
			<path class="st2" d="M262.9,171.4c-0.3-0.3-0.7-0.5-1.1-0.5c-0.4,0-0.8,0.2-1.1,0.5l-2.6,2.7c-0.6,0.6-0.6,1.6,0,2.2l9.1,8.8
				l-7.2,8l-9.8-8.1c-0.3-0.3-0.8-0.4-1.2-0.4c-0.4,0-0.8,0.3-1.1,0.6l-2.3,3c-0.5,0.7-0.4,1.7,0.3,2.2l27.1,21.6
				c0.3,0.3,0.8,0.4,1.2,0.3c0.4-0.1,0.8-0.3,1.1-0.6l1.8-2.5c0.5-0.7,0.4-1.6-0.3-2.2l-11.3-9.4l6.8-7.5l10.6,10.2
				c0.3,0.3,0.7,0.5,1.1,0.4c0.4,0,0.8-0.2,1.1-0.5l2.1-2.2c0.6-0.6,0.6-1.6,0-2.2L262.9,171.4z"/>
			<path class="st2" d="M548.4,417.7c-7.8-1.1-14.9-2.3-21.5-3.9l-11-9.1c-0.6-0.5-1.6-0.5-2.2,0.2l-2.1,2.3
				c-0.3,0.3-0.4,0.7-0.4,1.2c0,0.4,0.2,0.8,0.5,1.1l10.8,9.3c2.7,6.7,5.2,13.8,7.3,21c0.2,0.6,0.6,1,1.2,1.1
				c0.6,0.1,1.1-0.1,1.5-0.5l2.9-3.2c0.4-0.4,0.5-1.1,0.3-1.6l-4-10.8c-0.4-1.1-0.8-2.1-1.3-3.1c1.1,0.3,2.1,0.6,3.1,0.8
				c3.8,0.8,7.7,1.5,11.5,2.1c0.6,0.1,1.2-0.1,1.5-0.6l2.7-3.7c0.3-0.5,0.4-1,0.2-1.6C549.4,418.1,548.9,417.8,548.4,417.7z"/>
			<path class="st2" d="M516.1,209.8l3.2-2.6c0.3-0.3,0.5-0.7,0.6-1.1c0-0.4-0.1-0.9-0.4-1.2l-8.8-9.7l6.1-6.1l8.4,9.3
				c0.6,0.6,1.5,0.7,2.2,0.1l3.1-2.6c0.3-0.3,0.5-0.7,0.6-1.1c0-0.4-0.1-0.9-0.4-1.2l-8.7-9.6l5.3-5.2l9.9,10.9
				c0.6,0.6,1.5,0.7,2.2,0.2l3.1-2.6c0.3-0.3,0.5-0.7,0.6-1.1c0-0.4-0.1-0.9-0.4-1.2c-1.5-1.6-3.1-3.3-4.5-5
				c-3-3.4-6.2-6.9-9.6-10.1c-0.6-0.6-1.6-0.6-2.2,0.1l-24.1,24.9c-0.3,0.3-0.5,0.7-0.4,1.1c0,0.4,0.2,0.8,0.5,1.1
				c2.6,2.4,5,5.2,7.4,7.8c1.4,1.6,2.9,3.2,4.4,4.8C514.5,210.3,515.5,210.3,516.1,209.8z"/>
			<path class="st2" d="M507.1,182.5l-1.7-3.1c-0.2-0.4-0.6-0.7-1.1-0.8c-0.5-0.1-1,0-1.3,0.3c-5,4.2-7.6,3.4-9.2,2.3
				c-0.8-0.6-1.4-1.5-1.7-2.8c-0.6-2.7,0.8-6.6,4.1-11.2c1.3-1.8,2.7-3.3,4.2-4.6c3.1-2.6,6-2.8,8.9-0.6c0.9,0.6,3.6,2.6,0.7,8.2
				c-0.2,0.4-0.2,0.8-0.1,1.2c0.1,0.4,0.4,0.7,0.8,0.9l3.3,1.5c0.8,0.4,1.7,0.1,2.1-0.7c1.8-3.2,2.5-6.3,2.1-9.3
				c-0.3-3-1.8-5.6-4.5-7.6c-2.3-1.7-4.9-2.7-7.7-2.8c-5.7-0.3-10.7,2.9-15.3,9.7c-1.9,2.8-3.4,5.8-4.4,8.9
				c-2.2,6.7-1.1,11.7,3.3,14.9c2.3,1.7,5,2.3,8,1.9c2.8-0.5,5.8-1.9,8.9-4.3C507.3,184,507.5,183.2,507.1,182.5z"/>
			<path class="st2" d="M580.6,293.3c-3.7-2.2-8.3-3-14.1-2.5c-3.1,0.3-6.2,1-9.1,2.3c-3,1.3-5.3,3-6.9,5c-1.7,2.1-2.5,4.5-2.3,6.9
				c0.3,2.6,1,4.7,2.4,6.5c1.6,2.1,4,3.8,7.2,5.1c2.8,1.1,6,1.8,9.5,2c3.8,0.2,7-0.2,10-1.1c3.1-1,5.6-2.7,7.4-5.1
				c2-2.6,2.9-5.3,2.6-8.1C587,299.5,584.7,295.7,580.6,293.3z M578.8,308.4c-2.2,2.6-5.9,3.7-11.2,3.5c-3.7-0.1-6.7-0.9-8.9-2.2
				c-2.1-1.2-3.1-2.6-3.3-5c-0.1-1.1,0.2-3,3-4.7c2.2-1.4,5.1-2.2,8.6-2.5c4-0.3,7.2,0.2,9.5,1.3c2.4,1.2,3.7,3.1,3.8,5.8
				C580.2,306,579.8,307.3,578.8,308.4z"/>
			<path class="st2" d="M578.4,356.7l-33.4-9.3c-0.4-0.1-0.9-0.1-1.2,0.2c-0.4,0.2-0.6,0.6-0.7,1l-0.8,3c-0.2,0.8,0.3,1.7,1.1,1.9
				l33.2,10c0.4,0.1,0.9,0.1,1.2-0.1c0.4-0.2,0.6-0.6,0.8-1l0.9-3.6C579.7,357.8,579.2,357,578.4,356.7z"/>
			<path class="st2" d="M567.4,321.9c-3.4-0.3-6.6-0.2-9.8,0.5c-6.9,1.3-10.8,4.7-11.6,10c-0.4,2.7,0.4,5.4,2.4,8
				c1.7,2.2,4.4,4.1,8,5.7c0.7,0.3,1.5,0.1,1.9-0.6l2-2.9c0.3-0.4,0.3-0.9,0.2-1.4c-0.1-0.5-0.5-0.8-0.9-1c-7.2-2.8-6.7-5.9-6.5-7
				c0.2-1,0.7-2,1.7-2.8c2.1-1.8,6.2-2.4,11.9-1.8c2.2,0.2,4.2,0.8,6.1,1.5c3.8,1.5,5.3,3.9,4.7,7.5c-0.3,1.9-1.3,4.4-6.7,4.6
				c-0.4,0-0.8,0.2-1.1,0.5c-0.3,0.3-0.4,0.7-0.4,1.2l0.2,3.6c0,0.8,0.7,1.5,1.6,1.5c3.7,0,6.8-0.9,9.2-2.6c2.4-1.8,3.8-4.4,4.3-7.6
				c0.4-2.8,0-5.6-1.2-8.1C580.9,325.6,575.6,322.7,567.4,321.9z"/>
			<path class="st2" d="M563.4,395.3l-3.6-1.9c-0.8-0.4-1.7-0.1-2.1,0.6c-1,1.8-2,3.5-3,5.2l-0.8,1.3l-24.8-15
				c-0.7-0.4-1.7-0.2-2.2,0.5l-1.6,2.6c-0.4,0.7-0.2,1.7,0.5,2.1l24.5,15.5c-1.3,2.2-2.6,4.3-4.1,6.2c-0.3,0.3-0.4,0.8-0.3,1.2
				c0.1,0.4,0.3,0.8,0.7,1.1l3.3,2.3c0.7,0.5,1.7,0.3,2.2-0.4c3.4-4.6,6.3-9.6,9.2-14.5l2.8-4.8c0.2-0.4,0.3-0.8,0.2-1.2
				C564,395.9,563.7,395.5,563.4,395.3z"/>
			<path class="st2" d="M484.3,157c-0.6-1.2-2-2.9-4.1-5.3c-2-1.8-2.6-2.6-2.8-2.9c-0.7-1-0.7-2-0.2-3.1c0.6-1.2,1.4-1.8,2.6-1.9
				c1-0.1,2.2,0.2,3.4,0.8c2.7,1.6,3.3,3.8,1.7,7.1c-0.2,0.4-0.2,0.8-0.1,1.2c0.1,0.4,0.4,0.7,0.8,0.9l3.1,1.5
				c0.7,0.4,1.6,0.1,2.1-0.6c1.1-2,1.8-4,1.9-6c0.2-4.3-1.9-7.9-6.3-10.4c-2.1-1-4.1-1.5-6.1-1.5c-1.9,0-3.8,0.6-5.4,1.7
				c-1.6,1.1-2.9,2.7-3.9,4.7c-1.6,3.4-1.6,6.7,0.1,9.8c0.7,1.3,1.9,2.7,3.6,4.3c1.7,1.6,2.6,3.1,3.1,3.7c0.8,1.4,0.9,2.6,0,4.1
				c-0.4,0.7-0.9,1.2-1.6,1.7c-0.9,0.6-2.2,1-4.3-0.2c-1.1-0.6-1.8-1.2-2.3-2c-1-1.5-0.9-3.6,0.1-6.3c0.2-0.4,0.1-0.8,0-1.2
				c-0.2-0.4-0.5-0.7-0.9-0.8l-3-1c-0.8-0.3-1.6,0.1-2,0.8c-1,2.3-1.5,4.5-1.6,6.8c-0.1,4.6,2,8,6.2,10.1c1.6,1,3.4,1.4,5.3,1.3
				c1.8-0.1,3.5-0.7,5.2-1.8c1.7-1.1,3.2-2.6,4.4-4.5C485.9,164.2,486.2,160.5,484.3,157z"/>
			<path class="st2" d="M312.8,164.3c-1.8-1.2-3.5-2.1-5.1-2.7c0,0-0.1,0-0.1,0c2.3-3.3,2.3-7.3-0.2-11.6c-1.1-1.9-2.5-3.4-4.1-4.5
				c-2-1.3-4.1-1.8-6.3-1.3c-1.4,0.3-3.1,1-5.1,2.3c-2.7,1.5-5.2,3.4-7.6,5.2c-0.9,0.7-1.9,1.4-2.8,2.1c-0.3,0.2-0.6,0.6-0.6,1
				c-0.1,0.4,0,0.8,0.3,1.2l20.7,27.8c0.3,0.3,0.6,0.6,1,0.6c0.4,0.1,0.8,0,1.2-0.3l2.5-1.8c0.7-0.5,0.8-1.5,0.3-2.2l-8.1-11.3
				l1.9-1.4c0.6-0.4,1-0.6,1.2-0.6c0.1,0,0.5-0.1,1.1,0c0.3,0,1.2,0.3,3.2,1.4c0.9,0.5,2.1,1.3,3.5,2.2c0,0,6.4,4.5,6.4,4.5
				c0.5,0.4,1.2,0.4,1.7,0.1l3.3-2c0.4-0.3,0.7-0.8,0.8-1.3c0-0.5-0.2-1-0.7-1.3L312.8,164.3z M299.5,159.7c-1.7,1-3.4,2.2-4.9,3.3
				l-4.8-6.8c1.7-1.3,3.7-2.7,5.9-3.9c1.4-0.9,2.6-1.2,3.5-0.9c0.9,0.2,1.6,0.9,2.4,2.1c0.5,0.8,0.7,1.5,0.8,2.3
				C302.3,156.4,302.4,157.9,299.5,159.7z"/>
			<path class="st2" d="M361.8,129c-2.4-4.7-5.9-7.2-10.3-7.4c-1.4,0-3.2,0.2-5.5,0.8c-1.1,0.3-2.2,0.6-3.3,0.8
				c-2.1,0.5-4.3,1-6.4,1.9c-0.8,0.3-1.2,1.2-0.9,2l10.7,33c0.1,0.4,0.4,0.8,0.8,1c0.4,0.2,0.9,0.2,1.3,0c1.6-0.6,3.2-1,4.9-1.4
				c1-0.2,2-0.5,3-0.8c1.5-0.4,2.9-1,4-1.7c2.1-1.5,3.6-3.8,4.4-6.9c1-3.5,1-7.9,0-12.9C363.9,134.2,363,131.4,361.8,129z
				 M358,149.2c-0.5,1.4-1.9,2.3-4.1,2.9c0,0-2,0.5-3.5,0.9l-6.7-22.3l4.1-1.1c2.5-0.6,3.6-0.6,4.1-0.5c2.8,0.6,4.9,3.8,6.1,9.6
				C358.9,143.1,358.9,146.8,358,149.2z"/>
			<path class="st2" d="M341.1,157.7c-0.3-0.8-1.2-1.2-2-1c-4.6,1.5-8.8,3.4-12.2,5.1l-3.8-7.8c3.7-1.8,7.5-3.6,11.4-4.9
				c0.4-0.1,0.8-0.4,0.9-0.8c0.2-0.4,0.2-0.8,0-1.2l-1.5-3.8c-0.3-0.8-1.2-1.2-2-0.9c-4.2,1.4-8.2,3.3-12.1,5.2l-3.2-6.7
				c4.8-2.4,9.1-4.3,13.5-5.7c0.4-0.1,0.7-0.4,0.9-0.8c0.2-0.4,0.2-0.8,0.1-1.2l-1.4-3.8c-0.3-0.8-1.2-1.2-2-0.9
				c-5.4,1.7-10.5,4.2-15.4,6.6l-3.6,1.7c-0.4,0.2-0.7,0.5-0.8,0.9c-0.1,0.4-0.1,0.8,0.1,1.2l15.7,30.9c0.4,0.8,1.3,1.1,2.1,0.7
				l3-1.4c4.1-2,8.3-4.1,12.7-5.4c0.4-0.1,0.8-0.4,0.9-0.8c0.2-0.4,0.2-0.8,0.1-1.3L341.1,157.7z"/>
			<path class="st2" d="M463.2,144.6c-0.2-0.4-0.5-0.7-0.9-0.8l-12.2-4.5l2.2-7.1l13.9,5.1c0.8,0.3,1.7-0.1,2-0.9l1.6-3.8
				c0.2-0.4,0.2-0.9,0-1.3c-0.2-0.4-0.5-0.7-0.9-0.8c-2.1-0.7-4.3-1.6-6.3-2.3c-4.3-1.6-8.7-3.3-13.2-4.5c-0.8-0.2-1.7,0.3-1.9,1.1
				l-9.8,33.3c-0.1,0.4-0.1,0.8,0.1,1.2c0.2,0.4,0.6,0.6,1,0.8c3.4,0.9,6.8,2.2,10,3.4c2,0.8,4.1,1.6,6.2,2.3c0.8,0.3,1.6-0.1,2-0.9
				l1.6-3.8c0.2-0.4,0.2-0.8,0-1.2c-0.2-0.4-0.5-0.7-0.9-0.8l-12.3-4.5l2.6-8.2l11.8,4.3c0.8,0.3,1.7-0.1,2-0.9l1.5-3.8
				C463.4,145.4,463.3,145,463.2,144.6z"/>
			<path class="st2" d="M439.2,132.4c0.5-2.1,0.5-4.1,0.1-6.1c-0.5-2.3-1.8-4.2-3.6-5.4c-1.3-1-3.4-1.4-5.4-1.7
				c0,0-12.5-1.9-12.5-1.9c-0.4-0.1-0.9,0-1.2,0.3c-0.3,0.3-0.6,0.6-0.6,1.1l-4,34.4c-0.1,0.8,0.5,1.6,1.3,1.7l3,0.5
				c0.4,0.1,0.8,0,1.2-0.3c0.3-0.3,0.6-0.6,0.6-1.1l1.9-13.7l2.3,0.3c1.1,0.2,1.3,0.3,1.4,0.3c0.2,0.1,0.5,0.3,0.8,0.7
				c0.2,0.2,0.7,1,1.3,3.1c0.4,1.1,0.7,2.4,1,3.9c0,0,1.5,7.8,1.5,7.8c0.1,0.6,0.6,1.1,1.2,1.2l3.7,1c0.5,0.1,1.1,0,1.5-0.4
				c0.4-0.4,0.6-0.9,0.5-1.4c-0.5-3.4-1.2-6.9-1.9-10.3c-0.4-2.1-1-4-1.8-5.6c0,0,0-0.1-0.1-0.1C435.4,139.9,438,137.1,439.2,132.4z
				 M432.5,130.8c-0.2,0.9-0.5,1.6-1,2.2c-0.9,1-2.4,1.4-4.8,1.1c0,0-3.6-0.6-5.8-0.9l1.1-8.2l7.1,1.1c1.5,0.2,2.5,0.7,3,1.4
				C432.8,128.4,432.7,129.8,432.5,130.8z"/>
			<path class="st2" d="M397.6,122.5c1.1,0.1,4.5,0.2,5.7,6.3c0.1,0.4,0.3,0.8,0.7,1c0.4,0.2,0.8,0.3,1.2,0.2l3.6-0.9
				c0.8-0.2,1.3-1,1.2-1.8c-0.6-3.6-1.9-6.5-4-8.5c-2.1-2.1-4.9-3.2-8.1-3.4c-2.6-0.2-5.3,0.6-7.9,2.5c-4.7,3.4-6.7,9.1-6.2,17.2
				c0.2,3.4,0.8,6.6,1.9,9.7c2.2,6.3,6,9.5,11.6,9.6c2.9,0.2,5.5-0.9,7.6-3.3c1.9-2.1,3.4-5.1,4.4-9c0.2-0.8-0.2-1.6-0.9-1.9
				l-3.2-1.3c-0.4-0.2-0.9-0.2-1.3,0.1c-0.4,0.2-0.7,0.6-0.8,1.1c-1.4,6.7-4,7.3-5.8,7.2c-1.3-0.1-2.3-0.5-3.2-1.3
				c-2.1-1.7-3.3-5.6-3.5-11.2c-0.1-2.2,0.1-4.3,0.6-6.3C391.7,125.6,393.3,122.3,397.6,122.5z"/>
			<path class="st2" d="M242.2,282c-12.8,1.5-24.9,3.6-36,6.3c-0.7,0.2-1.2,0.8-1.2,1.5l-0.2,4.1c0,0.7,0.4,1.3,1,1.6
				c11.3,4.4,22.8,8.3,34.3,11.4c0.5,0.1,1,0,1.3-0.2c0.4-0.3,0.6-0.7,0.7-1.2l0.2-3.3c0-0.7-0.4-1.4-1.1-1.6l-9.1-2.7
				c0-0.8,0.1-1.7,0.1-2.5c0.1-1.8,0.2-3.6,0.4-5.3l9.6-1.3c0.7-0.1,1.2-0.6,1.3-1.3l0.5-3.5c0.1-0.5-0.1-1-0.4-1.3
				C243.1,282.1,242.6,281.9,242.2,282z M225.2,294.6c0,0.3,0,0.7,0,1c-2.9-1-7.9-2.8-7.9-2.8c-0.1-0.1-0.3-0.1-0.4-0.1
				c0.3-0.1,0.6-0.1,0.9-0.2c2.4-0.5,5-1,7.6-1.4C225.3,292.2,225.2,293.4,225.2,294.6z"/>
			<path class="st2" d="M269.5,394.7c-0.4-0.6-1.2-0.8-1.8-0.5l-9,3.4l-4.1-6.8l6.8-6.7c0.5-0.5,0.6-1.3,0.3-1.9
				c-0.2-0.3-0.4-0.6-0.6-0.9c-0.4-0.7-0.8-1.3-1.1-1.9c-0.2-0.5-0.6-0.8-1.1-0.9c-0.5-0.1-1,0-1.4,0.4c-8.4,8-16.5,16.6-24.8,26.5
				c-0.4,0.5-0.5,1.3-0.1,1.8l2.1,3.5c0.4,0.6,1.1,0.9,1.8,0.7c11-2.9,22.6-6.8,34.4-11.5c0.5-0.2,0.8-0.6,0.9-1
				c0.1-0.5,0-1-0.3-1.4L269.5,394.7z M244,402.3c-0.1,0-0.2,0.1-0.3,0.1c0.2-0.2,0.4-0.5,0.7-0.7c0,0,3.3-3.6,5.3-5.7l2.4,3.9
				C249.1,400.7,244,402.3,244,402.3z"/>
		</g>
	</g>
</g>
</svg>