<svg width="120" height="119" viewBox="0 0 120 119" fill="none" xmlns="http://www.w3.org/2000/svg">
<path d="M97.8508 74.2351C96.0196 70.6216 94.057 67.1433 91.9717 63.811C82.0324 79.238 65.392 93.0414 44.3085 101.625L51.3618 118.95C73.1681 110.073 89.3828 93.5715 97.8508 74.2351Z" fill="#FBBC05"/>
<path d="M54.7075 95.3604C57.5919 93.7572 60.3812 92.0679 63.0692 90.2994C44.5205 81.4088 27.3548 62.841 17.3233 38.2015L0 45.2544C10.3697 70.7316 31.1494 88.5968 54.7075 95.3604Z" fill="#34A853"/>
<path d="M82.5038 17.3245L75.4504 0C50.6362 10.1027 33.0532 30.0818 25.9055 52.8797C27.6396 55.7367 29.4697 58.4772 31.3711 61.1183C40.6014 43.3192 58.7318 27.0029 82.5038 17.3245Z" fill="#4285F4"/>
<path d="M119.441 73.2667C109.809 49.6079 91.2053 32.5178 69.736 24.7789C66.6365 26.5974 63.6541 28.5131 60.7975 30.5195C77.6234 40.1072 92.8868 57.6493 102.117 80.3201L119.441 73.2667Z" fill="#EA4335"/>
<path d="M62.2583 71.8759C68.2096 71.8759 73.0341 67.0514 73.0341 61.1001C73.0341 55.1487 68.2096 50.3242 62.2583 50.3242C56.3069 50.3242 51.4824 55.1487 51.4824 61.1001C51.4824 67.0514 56.3069 71.8759 62.2583 71.8759Z" fill="black"/>
</svg>
